<svg width="1200" height="260" viewBox="0 0 1200 260" fill="none" xmlns="http://www.w3.org/2000/svg">
  <defs>
    <linearGradient id="logoRed" x1="0" y1="0" x2="1200" y2="260" gradientUnits="userSpaceOnUse">
      <stop stop-color="#B10F34"/>
      <stop offset="1" stop-color="#7A0D21"/>
    </linearGradient>
  </defs>

  <g fill="url(#logoRed)">
    <path d="M25 190L86 43H144L198 190H132L117 151H82L68 190H25Z"/>
    <path d="M123 8H189L253 190H186L123 8Z"/>
    <path d="M96 101H122L133 133H85L96 101Z" fill="#FFFFFF"/>

    <path d="M206 47H273L331 151L389 47H456L370 190H292L206 47Z"/>

    <path d="M473 118C473 74 507 39 559 39C611 39 645 74 645 118C645 162 611 197 559 197C507 197 473 162 473 118ZM538 118C538 144 547 157 559 157C572 157 581 144 581 118C581 92 572 79 559 79C547 79 538 92 538 118Z"/>

    <path d="M690 47H831C846 47 858 59 858 74V190H794V94H754V190H690V47Z"/>
  </g>

  <g fill="url(#logoRed)">
    <path d="M26 238V221H49V146H67V221H90V238H26Z"/>
    <path d="M108 238V146H126V183H170V146H188V238H170V200H126V238H108Z"/>
    <path d="M210 238V146H279V163H228V182H274V198H228V221H281V238H210Z"/>
    <path d="M302 238V146H321L369 207V146H387V238H368L320 177V238H302Z"/>
    <path d="M409 238V146H478V163H427V182H473V198H427V221H480V238H409Z"/>
    <path d="M498 238V146H516V221H559V238H498Z"/>
    <path d="M574 238V146H643V163H592V182H638V198H592V221H645V238H574Z"/>
    <path d="M664 238V146H683L731 207V146H749V238H730L682 177V238H664Z"/>
    <path d="M771 238V146H840V163H789V182H835V198H789V221H842V238H771Z"/>
  </g>
</svg>
