<svg xmlns="http://www.w3.org/2000/svg" viewBox="0 0 64 64">
  <rect width="64" height="64" rx="16" fill="#fffdf8"/>
  <path d="M10 28L32 11l22 17" fill="none" stroke="#272229" stroke-linecap="round" stroke-linejoin="round" stroke-width="5"/>
  <path d="M17 26v23h30V26" fill="#272229"/>
  <path d="M26 49V36h12v13" fill="#fffdf8"/>
  <path d="M22 31h4M22 36h4M22 41h4M38 31h4M38 36h4M38 41h4M29 27h6M28 31h2M34 31h2" fill="none" stroke="#fffdf8" stroke-linecap="round" stroke-width="2.4"/>
  <path d="M28.2 44.6c0-2.65 1.72-4.45 4.06-4.45 1.62 0 2.71.78 3.45 1.85l-1.68 1.15c-.47-.67-1.02-1.06-1.79-1.06-1.18 0-1.95.96-1.95 2.51 0 1.59.75 2.54 1.98 2.54.78 0 1.39-.35 1.97-1.04l1.53 1.27c-.86 1.1-1.98 1.79-3.7 1.79-2.38 0-3.87-1.77-3.87-4.56z" fill="#d24942"/>
  <path d="M39.45 49V40.38h2.17V49zm1.08-9.58c-.7 0-1.22-.5-1.22-1.16 0-.64.51-1.15 1.22-1.15s1.21.51 1.21 1.15c0 .66-.51 1.16-1.21 1.16z" fill="#d24942"/>
</svg>
